<svg width="43" height="41" viewBox="0 0 43 41" fill="none" xmlns="http://www.w3.org/2000/svg">
<path d="M37.5 34.25V24C38.3905 23.5449 39.2288 22.9942 40 22.3575V34.25C40 35.9076 39.3415 37.4973 38.1694 38.6694C36.9973 39.8415 35.4076 40.5 33.75 40.5H6.25C4.5924 40.5 3.00269 39.8415 1.83058 38.6694C0.65848 37.4973 0 35.9076 0 34.25V14.25C0 12.5924 0.65848 11.0027 1.83058 9.83058C3.00269 8.65848 4.5924 8 6.25 8H18.0175C17.7862 8.8172 17.6313 9.65413 17.555 10.5H6.25C5.25544 10.5 4.30161 10.8951 3.59835 11.5983C2.89509 12.3016 2.5 13.2554 2.5 14.25V15.005L20 25.3L23.6025 23.18C24.415 23.7225 25.2875 24.1825 26.21 24.5475L20.635 27.8275C20.4756 27.9211 20.2973 27.9782 20.1132 27.9946C19.929 28.011 19.7435 27.9864 19.57 27.9225L19.365 27.8275L2.5 17.9075V34.25C2.5 35.2446 2.89509 36.1984 3.59835 36.9016C4.30161 37.6049 5.25544 38 6.25 38H33.75C34.7446 38 35.6984 37.6049 36.4016 36.9016C37.1049 36.1984 37.5 35.2446 37.5 34.25ZM31.25 23C28.2663 23 25.4048 21.8147 23.295 19.705C21.1853 17.5952 20 14.7337 20 11.75C20 8.76631 21.1853 5.90483 23.295 3.79505C25.4048 1.68526 28.2663 0.5 31.25 0.5C34.2337 0.5 37.0952 1.68526 39.2049 3.79505C41.3147 5.90483 42.5 8.76631 42.5 11.75C42.5 14.7337 41.3147 17.5952 39.2049 19.705C37.0952 21.8147 34.2337 23 31.25 23ZM25.365 12.635L30.365 17.635L30.3725 17.64C30.6042 17.8693 30.9166 17.9985 31.2425 18H31.2575C31.5859 17.9985 31.9004 17.8673 32.1325 17.635L37.1325 12.635C37.2487 12.5189 37.3409 12.3811 37.4039 12.2294C37.4669 12.0777 37.4993 11.9151 37.4994 11.7509C37.4996 11.5866 37.4673 11.424 37.4046 11.2722C37.3418 11.1204 37.2498 10.9825 37.1338 10.8663C37.0177 10.75 36.8799 10.6578 36.7282 10.5948C36.5765 10.5319 36.4139 10.4994 36.2496 10.4993C36.0854 10.4992 35.9227 10.5314 35.7709 10.5942C35.6192 10.6569 35.4812 10.7489 35.365 10.865L32.5 13.7325V6.75C32.5 6.41848 32.3683 6.10054 32.1339 5.86612C31.8995 5.6317 31.5815 5.5 31.25 5.5C30.9185 5.5 30.6005 5.6317 30.3661 5.86612C30.1317 6.10054 30 6.41848 30 6.75V13.7325L27.135 10.865C26.9003 10.6303 26.5819 10.4984 26.25 10.4984C25.9181 10.4984 25.5997 10.6303 25.365 10.865C25.1303 11.0997 24.9984 11.4181 24.9984 11.75C24.9984 12.0819 25.1303 12.4003 25.365 12.635Z" fill="white"/>
</svg>
