<svg width="38" height="38" viewBox="0 0 38 38" fill="none" xmlns="http://www.w3.org/2000/svg">
<path d="M0.25 8.0625C0.25 5.9905 1.0731 4.00336 2.53823 2.53823C4.00336 1.0731 5.9905 0.25 8.0625 0.25H29.9375C32.0095 0.25 33.9966 1.0731 35.4618 2.53823C36.9269 4.00336 37.75 5.9905 37.75 8.0625V29.9375C37.75 32.0095 36.9269 33.9966 35.4618 35.4618C33.9966 36.9269 32.0095 37.75 29.9375 37.75H8.0625C5.9905 37.75 4.00336 36.9269 2.53823 35.4618C1.0731 33.9966 0.25 32.0095 0.25 29.9375V8.0625ZM34.625 19V8.0625C34.625 6.8193 34.1311 5.62701 33.2521 4.74794C32.373 3.86886 31.1807 3.375 29.9375 3.375H8.0625C6.8193 3.375 5.62701 3.86886 4.74794 4.74794C3.86886 5.62701 3.375 6.8193 3.375 8.0625V19H11.1875C11.6019 19 11.9993 19.1646 12.2924 19.4576C12.5854 19.7507 12.75 20.1481 12.75 20.5625C12.75 20.725 12.775 21.0687 12.85 21.525C12.9781 22.2969 13.2094 23.0656 13.5625 23.7687C14.525 25.7 16.1969 26.8125 19 26.8125C21.8031 26.8125 23.475 25.7 24.4375 23.7687C24.7906 23.0656 25.0219 22.3 25.15 21.525C25.225 21.0687 25.25 20.725 25.25 20.5625C25.2499 20.1968 25.378 19.8426 25.6122 19.5617C25.8463 19.2807 26.1715 19.0908 26.5312 19.025L26.8125 19H34.625Z" fill="white"/>
</svg>
