<svg width="44" height="40" viewBox="0 0 44 40" fill="none" xmlns="http://www.w3.org/2000/svg">
<path d="M43.75 11.4583C43.75 14.4973 42.5428 17.4117 40.3939 19.5606C38.2451 21.7095 35.3306 22.9167 32.2917 22.9167C29.2527 22.9167 26.3383 21.7095 24.1894 19.5606C22.0405 17.4117 20.8333 14.4973 20.8333 11.4583C20.8333 8.41939 22.0405 5.50492 24.1894 3.35607C26.3383 1.20721 29.2527 0 32.2917 0C35.3306 0 38.2451 1.20721 40.3939 3.35607C42.5428 5.50492 43.75 8.41939 43.75 11.4583ZM31.25 7.72292V17.7083C31.25 17.9846 31.3597 18.2496 31.5551 18.4449C31.7504 18.6403 32.0154 18.75 32.2917 18.75C32.5679 18.75 32.8329 18.6403 33.0282 18.4449C33.2236 18.2496 33.3333 17.9846 33.3333 17.7083V7.72292L36.7625 11.1542C36.9581 11.3498 37.2234 11.4596 37.5 11.4596C37.7766 11.4596 38.0419 11.3498 38.2375 11.1542C38.4331 10.9586 38.543 10.6933 38.543 10.4167C38.543 10.14 38.4331 9.87476 38.2375 9.67917L33.0292 4.47083C32.9324 4.37383 32.8175 4.29686 32.6909 4.24435C32.5644 4.19184 32.4287 4.1648 32.2917 4.1648C32.1547 4.1648 32.019 4.19184 31.8924 4.24435C31.7659 4.29686 31.6509 4.37383 31.5542 4.47083L26.3458 9.67917C26.249 9.77602 26.1722 9.89099 26.1197 10.0175C26.0673 10.1441 26.0403 10.2797 26.0403 10.4167C26.0403 10.5536 26.0673 10.6893 26.1197 10.8158C26.1722 10.9423 26.249 11.0573 26.3458 11.1542C26.5414 11.3498 26.8067 11.4596 27.0833 11.4596C27.2203 11.4596 27.3559 11.4327 27.4825 11.3803C27.609 11.3278 27.724 11.251 27.8208 11.1542L31.25 7.72292ZM38.5417 32.8125V23.475C39.6847 22.8785 40.7369 22.1223 41.6667 21.2292V32.8125C41.6668 34.542 41.0051 36.2059 39.8173 37.463C38.6296 38.7201 37.0058 39.475 35.2792 39.5729L34.8958 39.5833H6.77083C5.04138 39.5834 3.37744 38.9218 2.12035 37.734C0.863264 36.5463 0.108331 34.9225 0.0104169 33.1958L1.45316e-08 32.8125V13.0208C-0.000113222 11.2914 0.661571 9.62744 1.84932 8.37035C3.03706 7.11326 4.66082 6.35833 6.3875 6.26042L6.77083 6.25H19.7875C19.3693 7.25232 19.074 8.30164 18.9083 9.375H6.77083C5.85585 9.37503 4.97434 9.71911 4.30127 10.3389C3.6282 10.9587 3.21279 11.809 3.1375 12.7208L3.125 13.0208V13.9146L20.8333 23.2333L23.5521 21.8021C24.4667 22.575 25.4833 23.2292 26.5812 23.7396L21.5604 26.3833C21.3688 26.484 21.1584 26.5437 20.9425 26.5588C20.7266 26.5739 20.51 26.5439 20.3062 26.4708L20.1062 26.3833L3.125 17.4458V32.8125C3.12503 33.7275 3.46911 34.609 4.08892 35.2821C4.70873 35.9551 5.55896 36.3705 6.47083 36.4458L6.77083 36.4583H34.8958C35.8111 36.4583 36.6929 36.1139 37.3661 35.4937C38.0392 34.8734 38.4544 34.0227 38.5292 33.1104L38.5417 32.8125Z" fill="white"/>
</svg>
